<mxfile host="app.diagrams.net" modified="2024-01-08T01:09:48.435Z" agent="Mozilla/5.0 (Windows NT 10.0; Win64; x64) AppleWebKit/537.36 (KHTML, like Gecko) Chrome/109.0.0.0 Safari/537.36" etag="XPK0os2o1QlLP_rOIJ8y" version="22.1.17" type="google">
  <diagram name="Page-1" id="qsOH6UTNJzgwOkoaz6xA">
    <mxGraphModel grid="1" page="1" gridSize="10" guides="1" tooltips="1" connect="1" arrows="1" fold="1" pageScale="1" pageWidth="850" pageHeight="1100" math="0" shadow="0">
      <root>
        <mxCell id="0" />
        <mxCell id="1" parent="0" />
        <mxCell id="-bdR2LMujIsr6kN-qx6T-26" style="edgeStyle=orthogonalEdgeStyle;rounded=0;orthogonalLoop=1;jettySize=auto;html=1;entryX=0;entryY=0.5;entryDx=0;entryDy=0;exitX=0.993;exitY=0.232;exitDx=0;exitDy=0;exitPerimeter=0;" edge="1" parent="1" source="-bdR2LMujIsr6kN-qx6T-17" target="-bdR2LMujIsr6kN-qx6T-24">
          <mxGeometry relative="1" as="geometry">
            <mxPoint x="510" y="260" as="sourcePoint" />
            <Array as="points">
              <mxPoint x="510" y="239" />
            </Array>
          </mxGeometry>
        </mxCell>
        <mxCell id="-bdR2LMujIsr6kN-qx6T-38" value="(3)" style="edgeLabel;html=1;align=center;verticalAlign=middle;resizable=0;points=[];" connectable="0" vertex="1" parent="-bdR2LMujIsr6kN-qx6T-26">
          <mxGeometry x="-0.1188" relative="1" as="geometry">
            <mxPoint as="offset" />
          </mxGeometry>
        </mxCell>
        <mxCell id="-bdR2LMujIsr6kN-qx6T-28" style="edgeStyle=orthogonalEdgeStyle;rounded=0;orthogonalLoop=1;jettySize=auto;html=1;entryX=0;entryY=0.5;entryDx=0;entryDy=0;exitX=1.021;exitY=0.76;exitDx=0;exitDy=0;exitPerimeter=0;" edge="1" parent="1" source="-bdR2LMujIsr6kN-qx6T-17" target="-bdR2LMujIsr6kN-qx6T-25">
          <mxGeometry relative="1" as="geometry">
            <mxPoint x="490" y="330" as="sourcePoint" />
          </mxGeometry>
        </mxCell>
        <mxCell id="-bdR2LMujIsr6kN-qx6T-33" value="(3)" style="edgeLabel;html=1;align=center;verticalAlign=middle;resizable=0;points=[];" connectable="0" vertex="1" parent="-bdR2LMujIsr6kN-qx6T-28">
          <mxGeometry x="-0.0646" y="2" relative="1" as="geometry">
            <mxPoint x="-1" y="-1" as="offset" />
          </mxGeometry>
        </mxCell>
        <mxCell id="-bdR2LMujIsr6kN-qx6T-17" value="Kafka" style="rounded=0;whiteSpace=wrap;html=1;fillColor=none;horizontal=1;align=center;verticalAlign=top;" vertex="1" parent="1">
          <mxGeometry x="340" y="200" width="140" height="170" as="geometry" />
        </mxCell>
        <mxCell id="-bdR2LMujIsr6kN-qx6T-1" value="Broker 1" style="rounded=1;whiteSpace=wrap;html=1;" vertex="1" parent="1">
          <mxGeometry x="350" y="220" width="120" height="60" as="geometry" />
        </mxCell>
        <mxCell id="-bdR2LMujIsr6kN-qx6T-2" value="Broker N" style="rounded=1;whiteSpace=wrap;html=1;" vertex="1" parent="1">
          <mxGeometry x="350" y="300" width="120" height="60" as="geometry" />
        </mxCell>
        <mxCell id="-bdR2LMujIsr6kN-qx6T-6" value="" style="endArrow=none;dashed=1;html=1;dashPattern=1 3;strokeWidth=2;rounded=0;entryX=0.5;entryY=1;entryDx=0;entryDy=0;exitX=0.5;exitY=0;exitDx=0;exitDy=0;" edge="1" parent="1" source="-bdR2LMujIsr6kN-qx6T-2" target="-bdR2LMujIsr6kN-qx6T-1">
          <mxGeometry width="50" height="50" relative="1" as="geometry">
            <mxPoint x="400" y="450" as="sourcePoint" />
            <mxPoint x="450" y="400" as="targetPoint" />
          </mxGeometry>
        </mxCell>
        <mxCell id="-bdR2LMujIsr6kN-qx6T-7" value="Schema Registry" style="rounded=1;whiteSpace=wrap;html=1;" vertex="1" parent="1">
          <mxGeometry x="350" y="90" width="120" height="60" as="geometry" />
        </mxCell>
        <mxCell id="-bdR2LMujIsr6kN-qx6T-8" value="Producer 1" style="rounded=1;whiteSpace=wrap;html=1;" vertex="1" parent="1">
          <mxGeometry x="135" y="210" width="120" height="60" as="geometry" />
        </mxCell>
        <mxCell id="-bdR2LMujIsr6kN-qx6T-9" value="Producer N" style="rounded=1;whiteSpace=wrap;html=1;" vertex="1" parent="1">
          <mxGeometry x="135" y="300" width="120" height="60" as="geometry" />
        </mxCell>
        <mxCell id="-bdR2LMujIsr6kN-qx6T-10" value="" style="endArrow=classic;html=1;rounded=0;entryX=0;entryY=0.5;entryDx=0;entryDy=0;exitX=1;exitY=0.5;exitDx=0;exitDy=0;" edge="1" parent="1" source="-bdR2LMujIsr6kN-qx6T-9" target="-bdR2LMujIsr6kN-qx6T-7">
          <mxGeometry width="50" height="50" relative="1" as="geometry">
            <mxPoint x="400" y="450" as="sourcePoint" />
            <mxPoint x="450" y="400" as="targetPoint" />
          </mxGeometry>
        </mxCell>
        <mxCell id="-bdR2LMujIsr6kN-qx6T-14" value="(1)" style="edgeLabel;html=1;align=center;verticalAlign=middle;resizable=0;points=[];" connectable="0" vertex="1" parent="-bdR2LMujIsr6kN-qx6T-10">
          <mxGeometry x="-0.0039" y="-2" relative="1" as="geometry">
            <mxPoint as="offset" />
          </mxGeometry>
        </mxCell>
        <mxCell id="-bdR2LMujIsr6kN-qx6T-11" value="" style="endArrow=classic;html=1;rounded=0;exitX=1;exitY=0.5;exitDx=0;exitDy=0;entryX=0;entryY=0.5;entryDx=0;entryDy=0;" edge="1" parent="1" source="-bdR2LMujIsr6kN-qx6T-8" target="-bdR2LMujIsr6kN-qx6T-7">
          <mxGeometry width="50" height="50" relative="1" as="geometry">
            <mxPoint x="400" y="450" as="sourcePoint" />
            <mxPoint x="290" y="150" as="targetPoint" />
          </mxGeometry>
        </mxCell>
        <mxCell id="-bdR2LMujIsr6kN-qx6T-13" value="(1)" style="edgeLabel;html=1;align=center;verticalAlign=middle;resizable=0;points=[];" connectable="0" vertex="1" parent="-bdR2LMujIsr6kN-qx6T-11">
          <mxGeometry x="-0.1565" y="2" relative="1" as="geometry">
            <mxPoint as="offset" />
          </mxGeometry>
        </mxCell>
        <mxCell id="-bdR2LMujIsr6kN-qx6T-16" value="" style="endArrow=classic;html=1;rounded=0;entryX=0;entryY=0.75;entryDx=0;entryDy=0;exitX=1;exitY=0.5;exitDx=0;exitDy=0;" edge="1" parent="1" source="-bdR2LMujIsr6kN-qx6T-9" target="-bdR2LMujIsr6kN-qx6T-17">
          <mxGeometry width="50" height="50" relative="1" as="geometry">
            <mxPoint x="400" y="260" as="sourcePoint" />
            <mxPoint x="450" y="210" as="targetPoint" />
          </mxGeometry>
        </mxCell>
        <mxCell id="-bdR2LMujIsr6kN-qx6T-23" value="(2)" style="edgeLabel;html=1;align=center;verticalAlign=middle;resizable=0;points=[];" connectable="0" vertex="1" parent="-bdR2LMujIsr6kN-qx6T-16">
          <mxGeometry x="0.0559" y="2" relative="1" as="geometry">
            <mxPoint as="offset" />
          </mxGeometry>
        </mxCell>
        <mxCell id="-bdR2LMujIsr6kN-qx6T-19" value="" style="endArrow=classic;html=1;rounded=0;exitX=1;exitY=0.5;exitDx=0;exitDy=0;entryX=-0.024;entryY=0.221;entryDx=0;entryDy=0;entryPerimeter=0;" edge="1" parent="1" source="-bdR2LMujIsr6kN-qx6T-8" target="-bdR2LMujIsr6kN-qx6T-17">
          <mxGeometry width="50" height="50" relative="1" as="geometry">
            <mxPoint x="400" y="490" as="sourcePoint" />
            <mxPoint x="240" y="190" as="targetPoint" />
          </mxGeometry>
        </mxCell>
        <mxCell id="-bdR2LMujIsr6kN-qx6T-40" value="(2)" style="edgeLabel;html=1;align=center;verticalAlign=middle;resizable=0;points=[];" connectable="0" vertex="1" parent="-bdR2LMujIsr6kN-qx6T-19">
          <mxGeometry x="-0.3407" y="1" relative="1" as="geometry">
            <mxPoint as="offset" />
          </mxGeometry>
        </mxCell>
        <mxCell id="-bdR2LMujIsr6kN-qx6T-21" value="Post: Schema&lt;br&gt;Resp: Schema Id" style="text;html=1;strokeColor=none;fillColor=none;align=left;verticalAlign=middle;whiteSpace=wrap;rounded=0;" vertex="1" parent="1">
          <mxGeometry x="240" y="140" width="100" height="30" as="geometry" />
        </mxCell>
        <mxCell id="-bdR2LMujIsr6kN-qx6T-22" value="Post:&lt;br&gt;Schema Id &amp;amp; Avro Event Data" style="text;html=1;strokeColor=none;fillColor=none;align=center;verticalAlign=middle;whiteSpace=wrap;rounded=0;" vertex="1" parent="1">
          <mxGeometry x="255" y="350" width="70" height="30" as="geometry" />
        </mxCell>
        <mxCell id="-bdR2LMujIsr6kN-qx6T-24" value="Consumer 1" style="rounded=1;whiteSpace=wrap;html=1;" vertex="1" parent="1">
          <mxGeometry x="540" y="210" width="120" height="60" as="geometry" />
        </mxCell>
        <mxCell id="-bdR2LMujIsr6kN-qx6T-25" value="Consumer N" style="rounded=1;whiteSpace=wrap;html=1;" vertex="1" parent="1">
          <mxGeometry x="540" y="300" width="120" height="60" as="geometry" />
        </mxCell>
        <mxCell id="-bdR2LMujIsr6kN-qx6T-30" value="(4)" style="endArrow=classic;html=1;rounded=0;entryX=1.004;entryY=0.55;entryDx=0;entryDy=0;entryPerimeter=0;exitX=0.01;exitY=0.136;exitDx=0;exitDy=0;exitPerimeter=0;" edge="1" parent="1" source="-bdR2LMujIsr6kN-qx6T-24" target="-bdR2LMujIsr6kN-qx6T-7">
          <mxGeometry x="-0.4054" width="50" height="50" relative="1" as="geometry">
            <mxPoint x="440" y="320" as="sourcePoint" />
            <mxPoint x="490" y="270" as="targetPoint" />
            <Array as="points">
              <mxPoint x="520" y="190" />
            </Array>
            <mxPoint as="offset" />
          </mxGeometry>
        </mxCell>
        <mxCell id="-bdR2LMujIsr6kN-qx6T-31" value="Get by Schema Id" style="text;html=1;strokeColor=none;fillColor=none;align=center;verticalAlign=middle;whiteSpace=wrap;rounded=0;" vertex="1" parent="1">
          <mxGeometry x="500" y="140" width="60" height="30" as="geometry" />
        </mxCell>
        <mxCell id="-bdR2LMujIsr6kN-qx6T-32" value="" style="endArrow=classic;html=1;rounded=0;entryX=1.008;entryY=0.662;entryDx=0;entryDy=0;entryPerimeter=0;exitX=0.017;exitY=0.073;exitDx=0;exitDy=0;exitPerimeter=0;" edge="1" parent="1" source="-bdR2LMujIsr6kN-qx6T-25" target="-bdR2LMujIsr6kN-qx6T-7">
          <mxGeometry width="50" height="50" relative="1" as="geometry">
            <mxPoint x="440" y="320" as="sourcePoint" />
            <mxPoint x="490" y="270" as="targetPoint" />
          </mxGeometry>
        </mxCell>
        <mxCell id="-bdR2LMujIsr6kN-qx6T-34" value="(4)" style="edgeLabel;html=1;align=center;verticalAlign=middle;resizable=0;points=[];" connectable="0" vertex="1" parent="-bdR2LMujIsr6kN-qx6T-32">
          <mxGeometry x="-0.2965" relative="1" as="geometry">
            <mxPoint x="-17" y="-43" as="offset" />
          </mxGeometry>
        </mxCell>
        <mxCell id="-bdR2LMujIsr6kN-qx6T-35" value="" style="endArrow=classic;html=1;rounded=0;entryX=0.5;entryY=0;entryDx=0;entryDy=0;exitX=0.5;exitY=1;exitDx=0;exitDy=0;" edge="1" parent="1" source="-bdR2LMujIsr6kN-qx6T-7" target="-bdR2LMujIsr6kN-qx6T-17">
          <mxGeometry width="50" height="50" relative="1" as="geometry">
            <mxPoint x="410" y="290" as="sourcePoint" />
            <mxPoint x="460" y="240" as="targetPoint" />
          </mxGeometry>
        </mxCell>
        <mxCell id="-bdR2LMujIsr6kN-qx6T-37" value="(Topic:_schemas)" style="edgeLabel;html=1;align=center;verticalAlign=middle;resizable=0;points=[];" connectable="0" vertex="1" parent="-bdR2LMujIsr6kN-qx6T-35">
          <mxGeometry x="0.001" y="1" relative="1" as="geometry">
            <mxPoint as="offset" />
          </mxGeometry>
        </mxCell>
      </root>
    </mxGraphModel>
  </diagram>
</mxfile>
